<?xml version="1.0" encoding="utf-8"?>
<!-- Generator: Adobe Illustrator 26.0.2, SVG Export Plug-In . SVG Version: 6.00 Build 0)  -->
<svg version="1.1" xmlns="http://www.w3.org/2000/svg" xmlns:xlink="http://www.w3.org/1999/xlink" x="0px" y="0px"
	 viewBox="0 0 455.4 143.2" style="enable-background:new 0 0 455.4 143.2;" xml:space="preserve">
<style type="text/css">
	.st0{fill:#18072B;}
	.st1{fill:#341846;}
	.st2{fill:#33A892;}
	.st3{fill:#64D5C1;}
	.st4{fill:#FFE600;}
	.st5{fill:#7C7C7C;}
	.st6{display:none;}
	.st7{display:inline;}
</style>
<g id="BACKGROUND">
</g>
<g id="OBJECTS">
	<g>
		<g>
			<g>
				<path class="st0" d="M142,76.2v-40h15.5c6.7,0,11.7,2,15.1,6s5,8.6,5,13.8c0,6-1.8,10.8-5.4,14.6c-3.6,3.7-8.2,5.6-14,5.6H142z
					 M154.3,67h3.2c2,0,3.7-1,5.1-3c1.4-2,2.1-4.7,2.1-8.1c0-2.9-0.6-5.4-1.9-7.5c-1.2-2.1-3-3.2-5.4-3.2h-3.2V67z"/>
				<path class="st0" d="M212.4,76.2h-11.1c-0.3-1.3-0.4-2.7-0.4-4.2c-2.1,3.2-5.3,4.8-9.6,4.8c-3.5,0-6.1-0.9-7.9-2.7
					c-1.7-1.8-2.6-3.9-2.6-6.2c0-3.1,1.4-5.7,4.3-7.6c2.9-1.9,7.9-3.1,15.2-3.5v-0.7c0-1.3-0.3-2.2-0.9-2.6
					c-0.6-0.4-1.5-0.6-2.6-0.6c-2.7,0-4.2,1.1-4.5,3.3l-10.7-1c1.5-6.2,6.7-9.3,15.6-9.3c2.4,0,4.6,0.2,6.6,0.7
					c2,0.5,3.6,1.2,4.8,2.2c1.2,1,2,2.1,2.4,3.2c0.4,1.1,0.6,3.3,0.6,6.5v11.9C211.5,72.6,211.8,74.6,212.4,76.2z M200.3,62.2
					c-5,0.5-7.5,2.1-7.5,4.8c0,1.8,1,2.7,3,2.7c1.2,0,2.3-0.4,3.2-1.1c0.9-0.7,1.3-2.4,1.3-4.9V62.2z"/>
				<path class="st0" d="M229.2,34.9v9.3h-11.7v-9.3H229.2z M229.2,46.4v29.8h-11.7V46.4H229.2z"/>
				<path class="st0" d="M246.9,36.2v40h-11.5v-40H246.9z"/>
				<path class="st0" d="M280.9,46.4l-11.7,32.3c-0.9,2.4-2.2,4.4-3.9,5.7c-1.7,1.4-4.3,2.1-7.8,2.1c-0.8,0-2.8-0.1-5.9-0.3v-8.3
					c1.5,0.2,2.9,0.4,4.2,0.4c3.4,0,5-0.7,5-2.2c0-0.5-0.2-1.2-0.5-2l-10.7-27.6h12.5l4.9,15.9l5.1-15.9H280.9z"/>
				<path class="st0" d="M321.2,60.9l11.2,0.7c-0.5,4.9-2.3,8.7-5.4,11.3c-3.1,2.6-6.9,3.9-11.4,3.9c-5.4,0-9.8-1.8-13.2-5.4
					c-3.3-3.6-5-8.6-5-14.9c0-6.3,1.6-11.3,4.7-15.2c3.2-3.8,7.6-5.8,13.2-5.8c5.3,0,9.4,1.5,12.2,4.4s4.4,6.8,4.8,11.7L321,52.2
					c0-2.7-0.5-4.6-1.5-5.8c-1-1.2-2.2-1.8-3.6-1.8c-3.9,0-5.8,3.9-5.8,11.7c0,4.4,0.5,7.3,1.5,8.9c1,1.6,2.4,2.3,4.2,2.3
					C319,67.5,320.8,65.3,321.2,60.9z"/>
				<path class="st0" d="M366.5,76.2h-11.1c-0.3-1.3-0.4-2.7-0.4-4.2c-2.1,3.2-5.3,4.8-9.6,4.8c-3.5,0-6.1-0.9-7.9-2.7
					c-1.7-1.8-2.6-3.9-2.6-6.2c0-3.1,1.4-5.7,4.3-7.6c2.9-1.9,7.9-3.1,15.2-3.5v-0.7c0-1.3-0.3-2.2-0.9-2.6
					c-0.6-0.4-1.5-0.6-2.6-0.6c-2.7,0-4.2,1.1-4.5,3.3l-10.7-1c1.5-6.2,6.7-9.3,15.6-9.3c2.4,0,4.6,0.2,6.6,0.7
					c2,0.5,3.6,1.2,4.8,2.2c1.2,1,2,2.1,2.4,3.2c0.4,1.1,0.6,3.3,0.6,6.5v11.9C365.6,72.6,365.9,74.6,366.5,76.2z M354.4,62.2
					c-5,0.5-7.5,2.1-7.5,4.8c0,1.8,1,2.7,3,2.7c1.2,0,2.3-0.4,3.2-1.1c0.9-0.7,1.3-2.4,1.3-4.9V62.2z"/>
				<path class="st0" d="M382.9,76.2h-11.2V46.4h9.7v6.2c1.1-4.5,3.7-6.7,7.8-6.7c0.4,0,1,0,1.7,0.1v10.4c-0.8-0.2-1.6-0.3-2.2-0.3
					c-3.9,0-5.8,2.2-5.8,6.5V76.2z"/>
				<path class="st0" d="M414.2,46.4V54h-5.9v11c0,1.5,0.3,2.4,0.8,2.7c0.6,0.3,1.2,0.4,1.8,0.4c0.9,0,2.1-0.2,3.3-0.5v8.3
					c-2.3,0.4-4.6,0.7-6.8,0.7c-3.6,0-6.2-0.8-7.9-2.3c-1.7-1.5-2.5-4-2.5-7.4l0-3.5V54h-4.5v-7.6h4.5l0.2-9.7l11.1-0.2v9.9H414.2z"
					/>
			</g>
		</g>
		<g>
			<g>
				<path class="st1" d="M67.4,124.5c-5.8,0-10.6-4.3-10.6-9.6c0-5.3,4.7-9.6,10.6-9.6c5.8,0,10.6,4.3,10.6,9.6
					C78,120.2,73.2,124.5,67.4,124.5z M67.4,110.9c-2.4,0-4.4,1.8-4.4,4c0,2.2,2,4,4.4,4c2.4,0,4.4-1.8,4.4-4
					C71.8,112.7,69.8,110.9,67.4,110.9z"/>
				<path class="st1" d="M98.6,124.5c-5.8,0-10.6-4.3-10.6-9.6c0-5.3,4.7-9.6,10.6-9.6c5.8,0,10.6,4.3,10.6,9.6
					C109.1,120.2,104.4,124.5,98.6,124.5z M98.6,110.9c-2.4,0-4.4,1.8-4.4,4c0,2.2,2,4,4.4,4c2.4,0,4.4-1.8,4.4-4
					C102.9,112.7,101,110.9,98.6,110.9z"/>
				<path class="st1" d="M50.8,117.2c-1.3,0-2.5-0.7-2.9-1.9L26.3,59.8h-9.8c-1.7,0-3.1-1.3-3.1-2.8c0-1.6,1.4-2.8,3.1-2.8h12
					c1.3,0,2.5,0.8,2.9,1.9l22.3,57.4c0.6,1.5-0.3,3.1-1.9,3.6C51.5,117.2,51.2,117.2,50.8,117.2z"/>
				<path class="st1" d="M113.1,109.9c-0.8,0-1.6-0.3-2.2-0.8c-1.2-1.1-1.2-2.9,0-4l5.2-4.7v-3h-71c-1.7,0-3.1-1.3-3.1-2.8
					c0-1.6,1.4-2.8,3.1-2.8h74c1.7,0,3.1,1.3,3.1,2.8v7c0,0.7-0.3,1.5-0.9,2l-6.1,5.6C114.7,109.6,113.9,109.9,113.1,109.9z"/>
				<path class="st1" d="M119.3,97.4c-1.7,0-3.1-1.3-3.1-2.8v-21c0-1.6,1.4-2.8,3.1-2.8c1.7,0,3.1,1.3,3.1,2.8v21
					C122.4,96.1,121,97.4,119.3,97.4z"/>
				<path class="st2" d="M84.2,58.1L84.2,58.1V29.3c0-7.5,6.7-13.6,15-13.6l0,0v28.8C99.2,52,92.5,58.1,84.2,58.1z"/>
				<path class="st3" d="M59.1,38.8h2c10.7,0,19.3,8.6,19.3,19.3v0h-2C67.8,58.1,59.1,49.4,59.1,38.8L59.1,38.8z"/>
			</g>
			<path class="st4" d="M107.8,85.3c0-12.9-11.6-23.4-25.8-23.4S56.2,72.4,56.2,85.3H107.8z"/>
		</g>
	</g>
	<g>
		<path class="st5" d="M272.3,104.7v5.6c0,0.1,0,0.1,0,0.2c0,0-0.1,0.1-0.2,0.1s-0.2,0.1-0.3,0.1s-0.3,0-0.5,0c-0.2,0-0.4,0-0.5,0
			c-0.1,0-0.2,0-0.3-0.1s-0.1-0.1-0.2-0.1c0,0,0-0.1,0-0.2v-5.6l-4.3-8.6c-0.1-0.2-0.1-0.3-0.2-0.4s0-0.2,0.1-0.2s0.2-0.1,0.3-0.1
			s0.4,0,0.6,0c0.2,0,0.4,0,0.6,0s0.3,0,0.3,0.1s0.2,0.1,0.2,0.1s0.1,0.1,0.1,0.2l2.1,4.4c0.2,0.4,0.4,0.8,0.6,1.3
			c0.2,0.5,0.4,0.9,0.6,1.4h0c0.2-0.4,0.4-0.9,0.6-1.3s0.4-0.9,0.6-1.3l2.1-4.4c0-0.1,0.1-0.1,0.1-0.2s0.1-0.1,0.2-0.1
			s0.2,0,0.3-0.1s0.3,0,0.5,0c0.3,0,0.5,0,0.7,0s0.3,0.1,0.3,0.1s0.1,0.1,0.1,0.2s-0.1,0.2-0.2,0.4L272.3,104.7z"/>
		<path class="st5" d="M286.9,104.9c0,0.9-0.1,1.7-0.3,2.4s-0.6,1.3-1,1.9s-1,0.9-1.7,1.2s-1.5,0.4-2.3,0.4c-0.9,0-1.6-0.1-2.3-0.4
			s-1.2-0.6-1.6-1.1s-0.8-1.1-1-1.8s-0.3-1.5-0.3-2.4c0-0.9,0.1-1.7,0.3-2.4s0.6-1.3,1-1.9s1-0.9,1.7-1.2s1.5-0.4,2.4-0.4
			c0.9,0,1.6,0.1,2.3,0.4s1.2,0.6,1.6,1.1s0.8,1.1,1,1.8S286.9,104,286.9,104.9z M284.9,105c0-0.6-0.1-1.1-0.2-1.6s-0.3-1-0.5-1.3
			c-0.2-0.4-0.6-0.7-1-0.9s-0.9-0.3-1.6-0.3c-0.6,0-1.1,0.1-1.5,0.3s-0.8,0.5-1,0.9s-0.5,0.8-0.6,1.3c-0.1,0.5-0.2,1.1-0.2,1.7
			c0,0.6,0.1,1.1,0.2,1.6s0.3,1,0.5,1.3c0.2,0.4,0.6,0.7,1,0.9c0.4,0.2,0.9,0.3,1.6,0.3c0.6,0,1.1-0.1,1.5-0.3
			c0.4-0.2,0.8-0.5,1-0.9s0.5-0.8,0.6-1.3C284.9,106.2,284.9,105.6,284.9,105z"/>
		<path class="st5" d="M298.8,110.3c0,0.1,0,0.1,0,0.2s-0.1,0.1-0.1,0.1s-0.2,0.1-0.3,0.1s-0.3,0-0.4,0c-0.2,0-0.3,0-0.4,0
			s-0.2,0-0.3-0.1s-0.1-0.1-0.1-0.1s0-0.1,0-0.2v-1.4c-0.6,0.7-1.2,1.1-1.8,1.5s-1.2,0.5-1.8,0.5c-0.7,0-1.3-0.1-1.8-0.4
			s-0.9-0.6-1.2-1s-0.5-0.9-0.6-1.4s-0.2-1.2-0.2-2v-6.4c0-0.1,0-0.1,0-0.2s0.1-0.1,0.2-0.1s0.2-0.1,0.3-0.1s0.3,0,0.5,0
			s0.3,0,0.5,0s0.2,0,0.3,0.1s0.1,0.1,0.2,0.1s0,0.1,0,0.2v6.1c0,0.6,0,1.1,0.1,1.5s0.2,0.7,0.4,0.9s0.4,0.5,0.7,0.6s0.6,0.2,1,0.2
			c0.5,0,1-0.2,1.4-0.5s1-0.8,1.5-1.5v-7.4c0-0.1,0-0.1,0-0.2s0.1-0.1,0.2-0.1s0.2-0.1,0.3-0.1s0.3,0,0.5,0c0.2,0,0.3,0,0.5,0
			s0.2,0,0.3,0.1s0.1,0.1,0.2,0.1s0.1,0.1,0.1,0.2V110.3z"/>
		<path class="st5" d="M308.5,100.4c0,0.2,0,0.3,0,0.4s0,0.2,0,0.3s-0.1,0.1-0.1,0.2s-0.1,0.1-0.1,0.1s-0.1,0-0.2-0.1
			s-0.2-0.1-0.3-0.1s-0.2-0.1-0.4-0.1s-0.3,0-0.5,0c-0.2,0-0.4,0-0.6,0.1s-0.4,0.2-0.6,0.4s-0.4,0.4-0.7,0.7s-0.5,0.7-0.8,1.1v6.9
			c0,0.1,0,0.1,0,0.2s-0.1,0.1-0.2,0.1s-0.2,0.1-0.3,0.1s-0.3,0-0.5,0c-0.2,0-0.3,0-0.5,0s-0.2,0-0.3-0.1s-0.1-0.1-0.2-0.1
			s0-0.1,0-0.2V99.7c0-0.1,0-0.1,0-0.2s0.1-0.1,0.1-0.1s0.2-0.1,0.3-0.1s0.3,0,0.4,0c0.2,0,0.3,0,0.4,0s0.2,0,0.3,0.1
			s0.1,0.1,0.1,0.1s0,0.1,0,0.2v1.5c0.3-0.4,0.6-0.8,0.8-1s0.5-0.5,0.7-0.6s0.5-0.3,0.7-0.3s0.4-0.1,0.7-0.1c0.1,0,0.2,0,0.3,0
			s0.3,0,0.4,0.1s0.3,0.1,0.4,0.1s0.2,0.1,0.2,0.1s0.1,0.1,0.1,0.1s0,0.1,0,0.1s0,0.1,0,0.2S308.5,100.2,308.5,100.4z"/>
		<path class="st5" d="M324.3,109.7c0,0.2,0,0.3,0,0.4s0,0.2-0.1,0.3s-0.1,0.1-0.1,0.2s-0.1,0.1-0.2,0.1h-6.7
			c-0.2,0-0.3-0.1-0.5-0.2s-0.2-0.3-0.2-0.6v-14c0-0.1,0-0.1,0-0.2s0.1-0.1,0.2-0.1s0.2-0.1,0.3-0.1s0.3,0,0.5,0c0.2,0,0.4,0,0.5,0
			s0.2,0,0.3,0.1s0.1,0.1,0.2,0.1s0,0.1,0,0.2v13.1h5.4c0.1,0,0.1,0,0.2,0.1s0.1,0.1,0.1,0.2s0.1,0.2,0.1,0.3
			S324.3,109.5,324.3,109.7z"/>
		<path class="st5" d="M328.4,96.2c0,0.5-0.1,0.8-0.3,0.9s-0.5,0.2-0.9,0.2c-0.5,0-0.8-0.1-0.9-0.2s-0.3-0.5-0.3-0.9
			c0-0.5,0.1-0.8,0.3-0.9s0.5-0.2,0.9-0.2c0.5,0,0.8,0.1,0.9,0.2S328.4,95.7,328.4,96.2z M328.2,110.3c0,0.1,0,0.1,0,0.2
			s-0.1,0.1-0.2,0.1s-0.2,0.1-0.3,0.1s-0.3,0-0.5,0c-0.2,0-0.3,0-0.5,0s-0.2,0-0.3-0.1s-0.1-0.1-0.2-0.1s0-0.1,0-0.2V99.7
			c0-0.1,0-0.1,0-0.2s0.1-0.1,0.2-0.1s0.2-0.1,0.3-0.1s0.3,0,0.5,0c0.2,0,0.4,0,0.5,0s0.2,0,0.3,0.1s0.1,0.1,0.2,0.1s0,0.1,0,0.2
			V110.3z"/>
		<path class="st5" d="M337.5,95.4c0,0.1,0,0.3,0,0.4s0,0.2-0.1,0.2s0,0.1-0.1,0.1s-0.1,0-0.1,0c-0.1,0-0.1,0-0.2-0.1
			s-0.2-0.1-0.3-0.1s-0.3-0.1-0.4-0.1s-0.3-0.1-0.6-0.1c-0.3,0-0.5,0-0.7,0.1s-0.4,0.2-0.5,0.4s-0.2,0.5-0.3,0.8s-0.1,0.7-0.1,1.2
			v1.1h2.4c0.1,0,0.1,0,0.2,0s0.1,0.1,0.1,0.1s0.1,0.2,0.1,0.3s0,0.2,0,0.4c0,0.3,0,0.5-0.1,0.6s-0.2,0.2-0.3,0.2h-2.4v9.2
			c0,0.1,0,0.1,0,0.2s-0.1,0.1-0.2,0.1s-0.2,0.1-0.3,0.1s-0.3,0-0.5,0s-0.3,0-0.5,0s-0.2,0-0.3-0.1s-0.1-0.1-0.2-0.1s0-0.1,0-0.2
			V101h-1.5c-0.1,0-0.2-0.1-0.3-0.2s-0.1-0.3-0.1-0.6c0-0.1,0-0.3,0-0.4s0-0.2,0.1-0.3s0.1-0.1,0.1-0.1s0.1,0,0.2,0h1.5v-1.1
			c0-0.7,0.1-1.4,0.2-1.9s0.3-1,0.6-1.3s0.6-0.6,1.1-0.7s0.9-0.2,1.5-0.2c0.3,0,0.5,0,0.8,0.1s0.5,0.1,0.6,0.2s0.2,0.1,0.3,0.2
			s0.1,0.1,0.1,0.2s0.1,0.2,0.1,0.3S337.5,95.2,337.5,95.4z"/>
		<path class="st5" d="M347.5,104.5c0,0.3-0.1,0.5-0.2,0.7c-0.2,0.1-0.3,0.2-0.5,0.2h-6.9c0,0.6,0.1,1.1,0.2,1.6
			c0.1,0.5,0.3,0.9,0.6,1.2c0.3,0.3,0.6,0.6,1.1,0.8s1,0.3,1.6,0.3c0.5,0,0.9,0,1.3-0.1s0.7-0.2,1-0.3s0.5-0.2,0.7-0.3
			s0.3-0.1,0.4-0.1c0.1,0,0.1,0,0.1,0c0,0,0.1,0.1,0.1,0.1s0,0.1,0.1,0.2s0,0.2,0,0.4c0,0.1,0,0.2,0,0.3s0,0.1,0,0.2s0,0.1-0.1,0.2
			s-0.1,0.1-0.1,0.1s-0.2,0.1-0.4,0.2s-0.5,0.2-0.8,0.3s-0.7,0.2-1.2,0.3s-0.9,0.1-1.4,0.1c-0.9,0-1.6-0.1-2.3-0.4s-1.2-0.6-1.6-1.1
			s-0.8-1.1-1-1.8s-0.3-1.6-0.3-2.5c0-0.9,0.1-1.7,0.4-2.4s0.6-1.3,1-1.8s1-0.9,1.6-1.2s1.3-0.4,2.1-0.4c0.8,0,1.5,0.1,2.1,0.4
			s1.1,0.6,1.4,1.1s0.7,1,0.8,1.6s0.3,1.3,0.3,1.9V104.5z M345.6,104c0-1-0.2-1.8-0.7-2.4c-0.5-0.6-1.2-0.9-2.1-0.9
			c-0.5,0-0.9,0.1-1.3,0.3c-0.4,0.2-0.7,0.4-0.9,0.7s-0.4,0.6-0.6,1c-0.1,0.4-0.2,0.8-0.2,1.2H345.6z"/>
		<path class="st5" d="M367.5,109.7c0,0.2,0,0.3-0.1,0.4c-0.1,0.1-0.1,0.2-0.2,0.3c-0.1,0.1-0.2,0.1-0.3,0.2c-0.1,0-0.2,0-0.3,0H366
			c-0.2,0-0.4,0-0.6-0.1c-0.2,0-0.3-0.1-0.4-0.2c-0.1-0.1-0.3-0.3-0.4-0.5c-0.1-0.2-0.3-0.4-0.5-0.8l-4.6-8.6
			c-0.2-0.4-0.5-0.9-0.7-1.4s-0.5-1-0.7-1.4h0c0,0.6,0,1.1,0,1.7s0,1.2,0,1.7v9.2c0,0.1,0,0.1,0,0.2c0,0.1-0.1,0.1-0.2,0.1
			c-0.1,0-0.2,0.1-0.3,0.1s-0.3,0-0.5,0s-0.4,0-0.5,0c-0.1,0-0.2,0-0.3-0.1s-0.1-0.1-0.2-0.1c0-0.1,0-0.1,0-0.2v-14
			c0-0.3,0.1-0.5,0.3-0.7s0.4-0.2,0.6-0.2h1c0.2,0,0.4,0,0.6,0.1c0.2,0,0.3,0.1,0.4,0.2c0.1,0.1,0.2,0.2,0.4,0.4
			c0.1,0.2,0.2,0.4,0.4,0.6l3.6,6.7c0.2,0.4,0.4,0.8,0.6,1.2c0.2,0.4,0.4,0.8,0.6,1.1c0.2,0.4,0.4,0.7,0.6,1.1s0.4,0.7,0.5,1.1h0
			c0-0.6,0-1.3,0-1.9s0-1.3,0-1.9v-8.2c0-0.1,0-0.1,0-0.2c0,0,0.1-0.1,0.2-0.1c0.1,0,0.2-0.1,0.3-0.1s0.3,0,0.5,0c0.2,0,0.3,0,0.5,0
			s0.2,0,0.3,0.1c0.1,0,0.1,0.1,0.2,0.1c0,0,0,0.1,0,0.2V109.7z"/>
		<path class="st5" d="M380.4,104.5c0,0.3-0.1,0.5-0.2,0.7c-0.2,0.1-0.3,0.2-0.5,0.2h-6.9c0,0.6,0.1,1.1,0.2,1.6
			c0.1,0.5,0.3,0.9,0.6,1.2c0.3,0.3,0.6,0.6,1.1,0.8s1,0.3,1.6,0.3c0.5,0,0.9,0,1.3-0.1s0.7-0.2,1-0.3s0.5-0.2,0.7-0.3
			s0.3-0.1,0.4-0.1c0.1,0,0.1,0,0.1,0c0,0,0.1,0.1,0.1,0.1s0,0.1,0.1,0.2s0,0.2,0,0.4c0,0.1,0,0.2,0,0.3s0,0.1,0,0.2s0,0.1-0.1,0.2
			s-0.1,0.1-0.1,0.1s-0.2,0.1-0.4,0.2s-0.5,0.2-0.8,0.3s-0.7,0.2-1.2,0.3s-0.9,0.1-1.4,0.1c-0.9,0-1.6-0.1-2.3-0.4s-1.2-0.6-1.6-1.1
			s-0.8-1.1-1-1.8s-0.3-1.6-0.3-2.5c0-0.9,0.1-1.7,0.4-2.4s0.6-1.3,1-1.8s1-0.9,1.6-1.2s1.3-0.4,2.1-0.4c0.8,0,1.5,0.1,2.1,0.4
			s1.1,0.6,1.4,1.1s0.7,1,0.8,1.6s0.3,1.3,0.3,1.9V104.5z M378.4,104c0-1-0.2-1.8-0.7-2.4c-0.5-0.6-1.2-0.9-2.1-0.9
			c-0.5,0-0.9,0.1-1.3,0.3c-0.4,0.2-0.7,0.4-0.9,0.7s-0.4,0.6-0.6,1c-0.1,0.4-0.2,0.8-0.2,1.2H378.4z"/>
		<path class="st5" d="M392.3,104.5c0,0.3-0.1,0.5-0.2,0.7c-0.2,0.1-0.3,0.2-0.5,0.2h-6.9c0,0.6,0.1,1.1,0.2,1.6
			c0.1,0.5,0.3,0.9,0.6,1.2c0.3,0.3,0.6,0.6,1.1,0.8s1,0.3,1.6,0.3c0.5,0,0.9,0,1.3-0.1s0.7-0.2,1-0.3s0.5-0.2,0.7-0.3
			s0.3-0.1,0.4-0.1c0.1,0,0.1,0,0.1,0c0,0,0.1,0.1,0.1,0.1s0,0.1,0.1,0.2s0,0.2,0,0.4c0,0.1,0,0.2,0,0.3s0,0.1,0,0.2s0,0.1-0.1,0.2
			s-0.1,0.1-0.1,0.1s-0.2,0.1-0.4,0.2s-0.5,0.2-0.8,0.3s-0.7,0.2-1.2,0.3s-0.9,0.1-1.4,0.1c-0.9,0-1.6-0.1-2.3-0.4s-1.2-0.6-1.6-1.1
			s-0.8-1.1-1-1.8s-0.3-1.6-0.3-2.5c0-0.9,0.1-1.7,0.4-2.4s0.6-1.3,1-1.8s1-0.9,1.6-1.2s1.3-0.4,2.1-0.4c0.8,0,1.5,0.1,2.1,0.4
			s1.1,0.6,1.4,1.1s0.7,1,0.8,1.6s0.3,1.3,0.3,1.9V104.5z M390.4,104c0-1-0.2-1.8-0.7-2.4c-0.5-0.6-1.2-0.9-2.1-0.9
			c-0.5,0-0.9,0.1-1.3,0.3c-0.4,0.2-0.7,0.4-0.9,0.7s-0.4,0.6-0.6,1c-0.1,0.4-0.2,0.8-0.2,1.2H390.4z"/>
		<path class="st5" d="M404.3,110.3c0,0.1,0,0.1,0,0.2s-0.1,0.1-0.1,0.1s-0.2,0-0.3,0.1s-0.2,0-0.4,0c-0.2,0-0.3,0-0.4,0
			s-0.2,0-0.3-0.1s-0.1-0.1-0.2-0.1s0-0.1,0-0.2v-1.4c-0.6,0.6-1.1,1.1-1.7,1.4s-1.3,0.5-2,0.5c-0.8,0-1.4-0.2-2-0.5s-1-0.7-1.3-1.2
			s-0.6-1.1-0.7-1.8s-0.2-1.4-0.2-2.2c0-0.9,0.1-1.7,0.3-2.5s0.5-1.4,0.9-1.9s0.9-0.9,1.4-1.2s1.2-0.4,2-0.4c0.6,0,1.2,0.1,1.7,0.4
			s1,0.7,1.5,1.2v-6.1c0-0.1,0-0.1,0-0.2s0.1-0.1,0.2-0.1s0.2-0.1,0.3-0.1s0.3,0,0.5,0c0.2,0,0.4,0,0.5,0s0.2,0,0.3,0.1
			s0.1,0.1,0.2,0.1s0.1,0.1,0.1,0.2V110.3z M402.3,102.8c-0.5-0.6-1-1.1-1.5-1.5s-1-0.5-1.5-0.5c-0.5,0-0.9,0.1-1.3,0.4
			s-0.6,0.5-0.8,0.9s-0.4,0.8-0.5,1.3s-0.1,1-0.1,1.5c0,0.5,0,1.1,0.1,1.6s0.2,1,0.4,1.4s0.5,0.7,0.8,0.9s0.8,0.4,1.3,0.4
			c0.3,0,0.5,0,0.7-0.1s0.5-0.2,0.7-0.4s0.5-0.4,0.8-0.6s0.6-0.6,0.9-1V102.8z"/>
		<path class="st5" d="M414.5,107.4c0,0.5-0.1,1-0.3,1.4s-0.5,0.8-0.8,1.1s-0.8,0.5-1.3,0.7s-1.1,0.2-1.7,0.2c-0.4,0-0.7,0-1.1-0.1
			s-0.6-0.1-0.9-0.2s-0.5-0.2-0.7-0.3s-0.3-0.2-0.4-0.3s-0.1-0.2-0.2-0.3s-0.1-0.3-0.1-0.6c0-0.1,0-0.3,0-0.4s0-0.2,0.1-0.2
			s0.1-0.1,0.1-0.1s0.1,0,0.1,0c0.1,0,0.2,0.1,0.4,0.2s0.4,0.2,0.6,0.3s0.5,0.2,0.9,0.3s0.7,0.2,1.2,0.2c0.3,0,0.6,0,0.9-0.1
			s0.5-0.2,0.7-0.3s0.3-0.3,0.5-0.5s0.2-0.5,0.2-0.8c0-0.3-0.1-0.5-0.2-0.8s-0.4-0.4-0.6-0.5s-0.5-0.3-0.8-0.4s-0.6-0.2-1-0.4
			s-0.7-0.3-1-0.5s-0.6-0.4-0.8-0.6s-0.5-0.5-0.6-0.9s-0.2-0.7-0.2-1.2c0-0.4,0.1-0.8,0.2-1.2s0.4-0.7,0.7-1s0.7-0.5,1.2-0.7
			s1-0.3,1.7-0.3c0.3,0,0.6,0,0.8,0.1s0.5,0.1,0.8,0.2s0.4,0.1,0.6,0.2s0.3,0.2,0.4,0.2s0.1,0.1,0.2,0.2s0,0.1,0.1,0.2s0,0.1,0,0.2
			s0,0.2,0,0.3c0,0.1,0,0.2,0,0.3s0,0.2-0.1,0.2s-0.1,0.1-0.1,0.1s-0.1,0-0.1,0c-0.1,0-0.2,0-0.3-0.1s-0.3-0.2-0.5-0.3
			s-0.5-0.2-0.7-0.3s-0.6-0.1-1-0.1c-0.3,0-0.6,0-0.9,0.1s-0.5,0.2-0.6,0.3s-0.3,0.3-0.4,0.5s-0.1,0.4-0.1,0.6
			c0,0.3,0.1,0.6,0.2,0.8s0.4,0.4,0.6,0.5s0.5,0.3,0.9,0.4s0.6,0.3,1,0.4s0.7,0.3,1,0.4s0.6,0.4,0.9,0.6s0.5,0.5,0.6,0.8
			S414.5,106.9,414.5,107.4z"/>
	</g>
</g>
<g id="Layer_3" class="st6">
	<g class="st7">
		<g>
			<path class="st1" d="M220.3,434.6c-14,0-25.4-10.3-25.4-23.1c0-12.7,11.4-23.1,25.4-23.1s25.4,10.3,25.4,23.1
				C245.7,424.2,234.3,434.6,220.3,434.6z M220.3,402c-5.8,0-10.5,4.3-10.5,9.5c0,5.3,4.7,9.5,10.5,9.5c5.8,0,10.5-4.3,10.5-9.5
				C230.8,406.3,226.1,402,220.3,402z"/>
			<path class="st1" d="M295.3,434.6c-14,0-25.4-10.3-25.4-23.1c0-12.7,11.4-23.1,25.4-23.1s25.4,10.3,25.4,23.1
				C320.6,424.2,309.3,434.6,295.3,434.6z M295.3,402c-5.8,0-10.5,4.3-10.5,9.5c0,5.3,4.7,9.5,10.5,9.5c5.8,0,10.5-4.3,10.5-9.5
				C305.8,406.3,301,402,295.3,402z"/>
			<path class="st1" d="M180.4,417.1c-3.1,0-5.9-1.7-7-4.5L121.5,279H98c-4.1,0-7.4-3-7.4-6.8c0-3.7,3.3-6.8,7.4-6.8h28.8
				c3.2,0,6,1.8,7,4.5l53.6,138.1c1.4,3.5-0.7,7.4-4.5,8.6C182.1,416.9,181.2,417.1,180.4,417.1z"/>
			<path class="st1" d="M330.3,399.5c-1.9,0-3.8-0.7-5.3-2c-2.9-2.6-2.9-6.9,0-9.6l12.6-11.4v-7.2H167c-4.1,0-7.4-3-7.4-6.8
				s3.3-6.8,7.4-6.8h178.1c4.1,0,7.4,3,7.4,6.8v16.7c0,1.8-0.8,3.5-2.2,4.8l-14.8,13.4C334.2,398.9,332.2,399.5,330.3,399.5z"/>
			<path class="st1" d="M345.1,369.4c-4.1,0-7.4-3-7.4-6.8v-50.5c0-3.7,3.3-6.8,7.4-6.8s7.4,3,7.4,6.8v50.5
				C352.5,366.4,349.2,369.4,345.1,369.4z"/>
			<path class="st2" d="M260.8,274.8L260.8,274.8v-69.3c0-18.1,16.1-32.7,36.1-32.7l0,0v69.3C296.8,260.2,280.7,274.8,260.8,274.8z"
				/>
			<path class="st3" d="M200.4,228.4h31.8c10.7,0,19.3,8.6,19.3,19.3v27.1h-31.8c-10.7,0-19.3-8.6-19.3-19.3V228.4z"/>
		</g>
		<path class="st4" d="M317.4,340.3c0-31.1-27.8-56.4-62.1-56.4s-62.1,25.2-62.1,56.4H317.4z"/>
	</g>
</g>
</svg>
